<svg
   xmlns:dc="http://purl.org/dc/elements/1.1/"
   xmlns:cc="http://creativecommons.org/ns#"
   xmlns:rdf="http://www.w3.org/1999/02/22-rdf-syntax-ns#"
   xmlns:svg="http://www.w3.org/2000/svg"
   xmlns="http://www.w3.org/2000/svg"
   version="1.1"
   width="400"
   height="400"
   id="svg3006">
  <metadata
     id="metadata3012">
    <rdf:RDF>
      <cc:Work
         rdf:about="">
        <dc:format>image/svg+xml</dc:format>
        <dc:type
           rdf:resource="http://purl.org/dc/dcmitype/StillImage" />
        <dc:title></dc:title>
      </cc:Work>
    </rdf:RDF>
  </metadata>
  <defs
     id="defs3010" />
  <g
     transform="translate(4,245)"
     id="layer1"
     style="display:inline">
    <circle
       cx="200.724"
       cy="61.599998"
       r="45"
       transform="matrix(1.0026323,0,0,1.0026323,-4.6899161,-245.40433)"
       id="circle3990"
       style="fill:#990000;fill-opacity:1" />
    <path
       d="m 287.65558,-193.51008 -25.56508,25.56411 c 20.67928,18.19075 33.73352,44.84474 33.73352,74.550722 0,54.81993 -44.44064,99.26058 -99.26157,99.26058 -54.81992,0 -99.260594,-44.44065 -99.260594,-99.26058 0,-29.705982 13.054274,-56.359962 33.733564,-74.550712 l -25.56512,-25.56511 c -27.194396,24.75698 -44.263208,60.44267 -44.263208,100.115822 0,74.755266 60.600098,135.355377 135.355358,135.355377 74.75626,0 135.35633,-60.600111 135.35633,-135.355377 0,-39.672142 -17.0698,-75.357842 -44.2632,-100.114832 z"
       id="path3992"
       style="fill:#006699;fill-opacity:1" />
    <path
       d="m 187.53876,-111.44162 -43.69873,-43.69972 c -17.42775,14.8951 -28.4908,37.0232 -28.4908,61.746092 0,41.800752 31.58593,76.212092 72.18953,80.70188 l 0,-98.748252 z m 61.74811,-43.69972 -43.69973,43.69871 0,98.749262 c 40.6046,-4.490792 72.18953,-38.901128 72.18953,-80.70188 0,-24.722892 -11.06305,-46.849992 -28.4898,-61.746092 z"
       id="path3994"
       style="fill:#339966;fill-opacity:1" />
    <path
       d="m 375.35484,95.545806 -11.73381,0 -3.09814,-7.708258 -16.50434,0 -3.15326,7.708258 -11.73381,0 16.80614,-38.00578 12.66625,0 16.75097,38.00578 z M 357.89099,81.2272 352.32537,67.346762 346.70562,81.2272 l 11.18537,0 z m -33.88193,14.318606 -11.43605,0 0,-38.00578 11.43605,0 0,38.00578 z M 305.44028,77.241755 c 0,3.891226 -0.70887,7.014426 -2.12554,9.370607 -1.41676,2.358141 -3.08514,4.266167 -5.00419,5.728025 -2.72213,2.136594 -6.52913,3.205419 -11.42297,3.205419 l -0.5745,0 -19.9123,0 0,-38.00578 15.77644,0 c 2.37421,0 4.40556,0.123355 6.09501,0.371948 1.68839,0.24671 3.20842,0.595588 4.55995,1.043768 1.35154,0.450168 2.50157,0.953496 3.4511,1.513961 0.94947,0.558503 1.79767,1.159071 2.54764,1.800723 1.29742,1.0608 2.43638,2.313109 3.41298,3.756877 0.97958,1.443768 1.75662,3.116181 2.3321,5.017187 0.57652,1.900981 0.86428,3.967407 0.86428,6.197265 z M 293.7847,76.748438 c 0,-3.087096 -0.58955,-5.493393 -1.76767,-7.219922 -1.17806,-1.726554 -2.59383,-2.882581 -4.24715,-3.466116 -1.65334,-0.585548 -3.33775,-0.87729 -5.05525,-0.87729 l -4.87783,0 0,22.497032 4.87783,0 c 2.99587,0 5.58867,-0.712852 7.78243,-2.136594 2.19176,-1.425754 3.28764,-4.357419 3.28764,-8.79711 z m -35.08413,18.797368 -28.62614,0 0,-38.00578 28.15992,0 0,7.645084 -16.72391,0 0,6.956258 15.95588,0 0,7.645058 -15.95588,0 0,8.115277 17.19013,0 0,7.644103 z m -38.26845,0 -11.43703,0 0,-22.026812 -10.34215,12.752438 -0.90538,0 -10.37022,-12.752438 0,22.026812 -11.1232,0 0,-38.00578 10.38325,0 11.68568,14.256412 11.73982,-14.256412 10.37021,0 0,38.00578 -8e-4,0 z m -53.79022,0 -11.43603,0 0,-38.00578 11.43603,0 0,38.00578 z m -16.48027,0 -13.98171,0 -14.53014,-17.796748 0,17.796748 -11.43603,0 0,-38.00578 11.43603,0 0,17.013652 13.76313,-17.013652 12.44667,0 -14.14613,17.796722 16.44818,20.209058 z m -49.5912,0 -11.436022,0 0,-38.00578 11.436022,0 0,38.00578 0,0 z m -16.754982,-38.00578 -16.449187,38.507096 -6.634421,0 -9.86991,-22.402812 -10.11656,22.402812 -6.689561,0 -16.120325,-38.507096 11.871171,0 7.895727,21.055277 9.046751,-21.055277 8.19752,0 8.88232,21.055277 8.251665,-21.055277 11.73481,0 z"
       id="path3996"
       style="fill:#484848;fill-opacity:1" />
    <path
       d="m 104.4375,357.9375 c -3.94659,2e-5 -7.082896,1.05019 -9.34375,3.21875 -2.23224,2.14114 -3.546047,4.52299 -3.9375,7.125 -0.04264,0.27714 -0.100213,0.54631 -0.125,0.84375 C 91.00796,369.40447 91,369.69335 91,369.96875 l 0,0.0937 0,0.125 c 0.04602,2.96849 1.270114,5.68747 3.59375,8.125 2.347371,2.46245 5.64535,3.6875 9.84375,3.6875 4.17728,0 7.4752,-1.2435 9.84375,-3.75 2.33984,-2.47616 3.5228,-5.2601 3.53125,-8.28125 -3e-5,-0.29717 -0.008,-0.60557 -0.0313,-0.90625 -0.0226,-0.29309 -0.0476,-0.58224 -0.0937,-0.90625 l 0,-0.0313 c -0.43758,-2.55619 -1.76947,-4.88323 -4,-7 -2.23862,-2.14626 -5.348,-3.18748 -9.25,-3.1875 z m 158.90625,0 c -4.43972,2e-5 -7.91286,1.20237 -10.375,3.6875 -2.44078,2.44079 -3.6875,5.2591 -3.6875,8.40625 0,3.0334 1.1491,5.81891 3.40625,8.28125 2.28545,2.47014 5.71176,3.6875 10.21875,3.6875 0.95629,0 1.83929,-0.074 2.65625,-0.1875 0.84471,-0.0913 1.67891,-0.24068 2.5,-0.46875 0.63546,-0.18156 1.26481,-0.4126 1.90625,-0.6875 l 0,0.0313 c 0.65649,-0.27166 1.36781,-0.61436 2.09375,-1 l 0.15625,-0.0937 0,-0.1875 0,-4.96875 0,-0.5 -0.4375,0.21875 c -0.9327,0.44413 -1.80085,0.82023 -2.5625,1.15625 -0.7538,0.33255 -1.45715,0.59403 -2.15625,0.8125 -0.54762,0.15333 -1.12056,0.28778 -1.6875,0.375 -0.53624,0.0858 -1.11347,0.125 -1.75,0.125 -2.31085,0 -4.17659,-0.64102 -5.65625,-1.90625 -1.45824,-1.26523 -2.18751,-2.82722 -2.1875,-4.78125 -1e-5,-1.95307 0.74001,-3.50699 2.21875,-4.75 1.47811,-1.24246 3.36967,-1.87498 5.75,-1.875 1.37788,2e-5 2.70683,0.21164 3.96875,0.625 1.27451,0.41754 2.51296,0.97149 3.75,1.65625 l 0.46875,0.28125 0,-0.5625 0,-5.0625 0,-0.1875 -0.15625,-0.0937 c -1.14924,-0.68951 -2.43915,-1.18935 -3.875,-1.53125 -1.43565,-0.34179 -2.95291,-0.49998 -4.5625,-0.5 z m -140.8125,0.25 0,0.3125 0,13.0625 c 0,3.59759 1.10824,6.26087 3.34375,7.9375 2.22932,1.65476 5.01246,2.5 8.375,2.5 3.18154,0 5.95618,-0.74441 8.25,-2.28125 2.36426,-1.56839 3.49997,-4.38623 3.5,-8.25 l 0,-12.96875 0,-0.3125 -0.3125,0 -5.6875,0 -0.3125,0 0,0.3125 0,12.78125 c -2e-5,1.97143 -0.569,3.32495 -1.65625,4.125 -1.10556,0.82916 -2.38141,1.21875 -3.84375,1.21875 -1.57048,0 -2.83216,-0.4586 -3.84375,-1.34375 -1.00258,-0.87724 -1.50001,-2.03827 -1.5,-3.625 l 0,-13.15625 0,-0.3125 -0.3125,0 -5.6875,0 -0.3125,0 z m 27.53125,0 0,0.3125 0,4.1875 0,0.3125 0.3125,0 7.96875,0 0,18.375 0,0.3125 0.3125,0 5.71875,0 0.3125,0 0,-0.3125 0,-18.375 7.96875,0 0.3125,0 0,-0.3125 0,-4.1875 0,-0.3125 -0.3125,0 -22.28125,0 -0.3125,0 z m 27.125,0 0,0.3125 0,22.875 0,0.3125 0.3125,0 5.6875,0 0.3125,0 0,-0.3125 0,-8.96875 1.34375,0.0313 c 0.81295,10e-6 1.44124,0.30857 1.96875,0.9375 0.57141,0.65608 1.13152,1.52615 1.65625,2.59375 0.004,0.008 -0.004,0.0231 0,0.0313 0.37432,0.79374 0.75183,1.68114 1.125,2.625 l 0.0313,0 c 0.40623,0.9479 0.85765,1.91657 1.375,2.90625 l 0.0937,0.15625 0.1875,0 6.28125,0 0.53125,0 -0.25,-0.46875 c -0.98331,-2.01128 -1.7982,-3.66889 -2.375,-5 -0.58448,-1.37121 -1.0978,-2.47269 -1.625,-3.34375 -0.34377,-0.57292 -0.68395,-1.0665 -1.0625,-1.46875 -0.26267,-0.27907 -0.61698,-0.45563 -0.9375,-0.65625 1.12216,-0.58565 2.02146,-1.28216 2.625,-2.15625 0.68641,-0.99413 1.03123,-2.16177 1.03125,-3.46875 -2e-5,-1.80256 -0.69323,-3.41194 -2.0625,-4.78125 -1.38453,-1.40796 -3.30896,-2.13328 -5.71875,-2.15625 l -10.21875,0 -0.3125,0 z m 24.1875,0 0,0.3125 0,22.875 0,0.3125 0.3125,0 16.875,0 0.3125,0 0,-0.3125 0,-4.1875 0,-0.3125 -0.3125,0 -10.875,0 0,-4.875 10.125,0 0.3125,0 0,-0.3125 0,-4.1875 0,-0.3125 -0.3125,0 -10.125,0 0,-4.1875 10.625,0 0.3125,0 0,-0.3125 0,-4.1875 0,-0.3125 -0.3125,0 -16.625,0 -0.3125,0 z m 29.46875,0 -0.0937,0.1875 -9.21875,22.875 -0.15625,0.4375 0.46875,0 6.03125,0 0.21875,0 0.0937,-0.1875 1.65625,-4.34375 9.71875,0 1.8125,4.34375 0.0937,0.1875 0.21875,0 6.15625,0 0.5,0 -0.21875,-0.4375 -10.15625,-22.875 -0.0625,-0.1875 -0.21875,0 -6.625,0 -0.21875,0 z m 46.71875,0 0,0.3125 0,22.875 0,0.3125 0.3125,0 5.6875,0 0.3125,0 0,-0.3125 0,-8.9375 10.78125,0 0,8.9375 0,0.3125 0.3125,0 5.71875,0 0.3125,0 0,-0.3125 0,-22.875 0,-0.3125 -0.3125,0 -5.71875,0 -0.3125,0 0,0.3125 0,8.875 -10.78125,0 0,-8.875 0,-0.3125 -0.3125,0 -5.6875,0 -0.3125,0 z M 183.5,363 l 2.59375,0.0313 c 1.02495,2e-5 1.72784,0.24198 2.1875,0.625 l 0.0313,0 c 0.47827,0.3635 0.71874,0.87879 0.71875,1.65625 -1e-5,0.8827 -0.28679,1.40431 -0.84375,1.75 -0.60532,0.35484 -1.24793,0.55186 -1.96875,0.53125 l -2.71875,0 0,-4.59375 z m -79.0625,0.3125 c 2.10591,2e-5 3.74403,0.59914 5,1.8125 1.25718,1.2146 1.90623,2.80378 1.90625,4.8125 l 0,0.0313 c -2e-5,2.03185 -0.64961,3.6297 -1.90625,4.84375 -1.25597,1.21338 -2.89409,1.8125 -5,1.8125 -2.10594,0 -3.7853,-0.59915 -5.0625,-1.8125 -1.254835,-1.21229 -1.875007,-2.8087 -1.875,-4.84375 -7e-6,-2.03503 0.620163,-3.63144 1.875,-4.84375 1.2772,-1.21334 2.95656,-1.81248 5.0625,-1.8125 z m 130.03125,1.5625 3.1875,7.65625 -6.09375,0 2.90625,-7.65625 z"
       transform="translate(-4,-245)"
       id="path3901"
       style="font-size:33.53460693px;font-style:normal;font-variant:normal;font-weight:bold;font-stretch:normal;text-indent:0;text-align:start;text-decoration:none;line-height:125%;letter-spacing:1.39297616px;word-spacing:0px;text-transform:none;direction:ltr;block-progression:tb;writing-mode:lr-tb;text-anchor:start;baseline-shift:baseline;color:#000000;fill:#666666;fill-opacity:1;fill-rule:nonzero;stroke:none;stroke-width:0.64489633;marker:none;visibility:visible;display:inline;overflow:visible;enable-background:accumulate;font-family:GillSans-Bold;-inkscape-font-specification:GillSans-Bold Bold" />
  </g>
</svg>